<svg viewBox="0 0 72 72" xmlns="http://www.w3.org/2000/svg"><path d="m21 13-2 5 5 2 2 9-5 5 2 3-3 2v1l5 7 4-2m5.5 11 1.5-3 3-2 7 4 5-1v-4l-2-2 1.5-3.5" fill="none" stroke="#000" stroke-linecap="round" stroke-linejoin="round" stroke-width="2"/><path clip-rule="evenodd" d="m25 13-13-1v12l.9967 11.04-.9967 11.96v12l13 1 11-1 12 1 12-1v-12l-.9967-11.96.9967-11.04v-12l-12 1-12-1z" fill="#b1cc33" fill-rule="evenodd"/><path d="m12 12 .0767-.9971c-.2777-.0213-.5518.0741-.7561.2634-.2044.1892-.3206.4552-.3206.7337zm13 1-.0767.9971c.0557.0042.1116.0038.1672-.0012zm-13 11h-1c0 .03.0014.06.0041.0899zm.9967 11.04.9965.083c.0048-.0575.0046-.1154-.0006-.1729zm-.9967 11.96-.9965-.083c-.0023.0276-.0035.0553-.0035.083zm0 12h-1c0 .5225.4023.957.9233.9971zm13 1-.0767.9971c.0557.0042.1116.0038.1672-.0012zm11-1 .083-.9965c-.0577-.0049-.1158-.0046-.1735.0006zm12 1-.083.9965c.0552.0047.1108.0047.166 0zm12-1 .083.9965c.5183-.0431.917-.4764.917-.9965zm0-12h1c0-.0277-.0012-.0554-.0035-.083zm-.9967-11.96-.9959-.0899c-.0052.0575-.0054.1154-.0006.1729zm.9967-11.04.9959.0899c.0027-.0299.0041-.0599.0041-.0899zm0-12h1c0-.2797-.1171-.5465-.3229-.7359-.2058-.1893-.4815-.2839-.7601-.2606zm-12 1-.083.9965c.0552.0047.1108.0047.166 0zm-12-1 .083-.9965c-.0577-.0049-.1158-.0046-.1735.0006zm-24.0767.9971 13 1 .1534-1.9942-13-1zm1.0767 11.0029v-12h-2v12zm.9926 10.9501-.9967-11.04-1.9918.1798.9966 11.04zm-.9961 12.1329.9967-11.96-1.9931-.166-.9966 11.96zm.0035 11.917v-12h-2v12zm12.0767.0029-13-1-.1534 1.9942 13 1zm10.8328-.9988-11 1 .181 1.9918 11-1zm12.1735.9994-12-1-.166 1.993 12 1zm11.834-1-12 1 .166 1.993 12-1zm-.917-11.0035v12h2v-12zm-.9932-11.877.9967 11.96 1.993-.166-.9966-11.96zm.9973-11.2129-.9967 11.04 1.9919.1798.9966-11.04zm-.0041-11.9101v12h2v-12zm-10.917 1.9965 12-1-.166-1.993-12 1zm-12.166-1 12 1 .166-1.993-12-1zm-10.8265.9994 11-1-.181-1.9918-11 1z" fill="#b1cc33"/><path d="m21 13-2 5 5 2 2 9-5 5 2 3-3 2v1l5 7 4-2 4 6-2 6 2 2 3-6 3-2 7 4 5-1v-4l-2-2 3-7 8-1" fill="none" stroke="#ea5a47" stroke-linejoin="round" stroke-width="2"/><path clip-rule="evenodd" d="m16 49c1.6569 0 3-1.3431 3-3s-1.3431-3-3-3-3 1.3431-3 3v7.9996c-.3786.2844-.7156.6213-1 .9999v4.0005h1 3 4.9c.0656-.3231.1-.6575.1-1 0-2.7614-2.2386-5-5-5-1.1046 0-2-.8954-2-2s.8954-2 2-2z" fill="#5c9e31" fill-rule="evenodd"/><path clip-rule="evenodd" d="m57.25 53.9c-1.4083 0-2.55 1.1417-2.55 2.55s1.1417 2.55 2.55 2.55 2.55-1.1417 2.55-2.55v-.0058-6.7939c.3218-.2417.6082-.5281.85-.8499v-5.1008c-.7754-1.0321-2.0097-1.6996-3.4-1.6996-2.3472 0-4.25 1.9028-4.25 4.25s1.9028 4.25 4.25 4.25c.9389 0 1.7.7611 1.7 1.7s-.7611 1.7-1.7 1.7z" fill="#5c9e31" fill-rule="evenodd"/><path clip-rule="evenodd" d="m48.8675 39.8669c-.6099.0877-1.2334.1331-1.8675.1331-7.1797 0-13-5.8203-13-13 0-.6341.0454-1.2577.1331-1.8675-3.6339 1.7957-6.1331 5.5398-6.1331 9.8675 0 6.0751 4.9249 11 11 11 4.3277 0 8.0718-2.4992 9.8675-6.1331z" fill="#92d3f5" fill-rule="evenodd"/><path clip-rule="evenodd" d="m31.5 19c2.4853 0 4.5-2.0147 4.5-4.5 0-.9251-.2791-1.785-.7578-2.5h-7.4844c-.4787.715-.7578 1.5749-.7578 2.5 0 2.4853 2.0147 4.5 4.5 4.5z" fill="#5c9e31" fill-rule="evenodd"/><path d="m56.7067 33.4246c3.317-5.1984 1.7918-12.1016-3.4066-15.4186s-12.1016-1.7918-15.4186 3.4067c-3.3171 5.1985-1.7919 12.1016 3.4065 15.4187 5.1985 3.317 12.1016 1.7917 15.4187-3.4068z" fill="#b1cc33"/><path clip-rule="evenodd" d="m50.9731 14.6183c-.3131 3.5764-3.3155 6.3817-6.9731 6.3817-2.2091 0-4 1.7909-4 4s1.7909 4 4 4c3.866 0 7 3.134 7 7 0 1.3414-.3773 2.5947-1.0316 3.6596-.9534.2226-1.9472.3404-2.9684.3404-4.0209 0-7.6154-1.8255-10-4.6929v-16.6142c2.3846-2.8674 5.9791-4.6929 10-4.6929 1.3857 0 2.7207.2168 3.9731.6183z" fill="#92d3f5" fill-rule="evenodd"/><path d="m56.7639 33.7898c1.461-2.289 2.284-6.5149 1.6981-9.1673-.4014-1.8161-2.6553-3.8396-3.8988-5.1585.6487 2.3544 1.0384 7.3509-2.1852 11.9716-2.7358 3.9212-6.6908 5.6353-8.9477 6.0576 4.2488 1.2831 10.8311.2175 13.3336-3.7034z" fill="#5c9e31"/><path clip-rule="evenodd" d="m50.5686 33.5751c.279.7555.4314 1.5724.4314 2.4249 0 .5419-.0616 1.0695-.1781 1.5761-2.5086.614-5.2473.5646-7.3916-.0829 1.7946-.3358 4.663-1.4884 7.1383-3.9181z" fill="#61b2e4" fill-rule="evenodd"/><path d="m55.1011 15.1854c-3.2684-2.0837-7.1512-2.7717-10.9373-1.9372-3.785.8366-7.0182 3.097-9.1041 6.3645-4.3036 6.746-2.3176 15.7369 4.4283 20.0415 6.745 4.3047 15.7348 2.3197 20.0415-4.4273 2.0849-3.2675 2.7728-7.1524 1.9362-10.9374-.8366-3.7851-3.096-7.0182-6.3646-9.1041zm1.8363 18.3876c-2.1788 3.4147-5.8819 5.2814-9.6611 5.2814-2.1045.0009-4.2319-.5785-6.1343-1.7924-5.3172-3.3926-6.8818-10.4791-3.4892-15.7954 1.6436-2.5754 4.1915-4.3576 7.1747-5.0159 2.9841-.6584 6.0444-.1176 8.6208 1.5269 2.5755 1.6426 4.3567 4.1905 5.016 7.1747.6593 2.9831.1166 6.0443-1.5269 8.6207z" fill="#d0cfce"/><path d="m34.7666 41.2091-6.918 10.335-3.7106 5.8155c-.4778.75.3797 3.2105 1.1294 3.6888.3613.2305 2.5325.011 2.5325.011l11.5238-17.1923z" fill="#3f3f3f"/><g fill="none" stroke-linecap="round" stroke-width="2"><path d="m42.5 21h9.5" stroke="#fff"/><path d="m40 24h13" stroke="#fff"/><path d="m39 27h13" stroke="#fff"/><path d="m59.5371 35.0666c4.3067-6.5674 2.3264-15.2885-4.4231-19.479s-15.7124-2.2637-20.0191 4.3037c-4.3067 6.5675-2.3264 15.2885 4.4231 19.479s15.7124 2.2637 20.0191-4.3037z" stroke="#000" stroke-linejoin="round" stroke-miterlimit="10"/><path d="m56.6385 33.2669c3.2853-5.0098 1.7748-11.6625-3.3739-14.8591s-11.9858-1.7267-15.2711 3.2831-1.7747 11.6624 3.374 14.8591c5.1487 3.1966 11.9858 1.7267 15.271-3.2831z" stroke="#000" stroke-linejoin="round" stroke-miterlimit="10"/><path d="m34.777 41.444 4.3636 2.709-10.3955 15.853c-.7427 1.1326-2.3216 1.4442-3.5265.6962-1.205-.7481-1.5798-2.2726-.8371-3.4053z" stroke="#000" stroke-linejoin="round" stroke-miterlimit="10"/><path d="m40 12.3333-4-.3333-11 1-13-1v12l.9967 11.04-.9967 11.96v12l9 .6923m33.2656-47.2144 5.7344-.4779v4.5m-.625 23 .625 7.5v12l-12 1-12-1-3.5.3182" stroke="#000" stroke-linejoin="round"/></g></svg>